<?xml version="1.0" ?><!DOCTYPE svg  PUBLIC '-//W3C//DTD SVG 1.1//EN'  'http://www.w3.org/Graphics/SVG/1.1/DTD/svg11.dtd'><svg enable-background="new 0 0 512 512" height="512px" id="Layer_1" version="1.1" viewBox="0 0 512 512" width="512px" xml:space="preserve" xmlns="http://www.w3.org/2000/svg" xmlns:xlink="http://www.w3.org/1999/xlink"><g><path clip-rule="evenodd" d="M256.23,512C396.81,512,512,396.81,512,256.23   C512,115.184,396.81,0,256.23,0C115.184,0,0,115.184,0,256.23C0,396.81,115.184,512,256.23,512L256.23,512z" fill="#E17842" fill-rule="evenodd"/><path clip-rule="evenodd" d="M112.012,160.085c131.97,0,240.35,107.926,240.35,239.896h79.819   c0-175.957-144.219-319.715-320.169-319.715V160.085z M155.546,320.161c22.225,0,39.91,17.686,39.91,39.918   c0,22.216-17.686,39.901-39.91,39.901c-22.216,0-39.91-17.686-39.91-39.901C115.636,337.847,133.33,320.161,155.546,320.161   L155.546,320.161z M112.012,272.088c70.289,0,127.885,57.604,127.885,127.893h80.265c0-114.284-93.412-207.696-208.149-207.696   V272.088z" fill="#FFFFFF" fill-rule="evenodd"/></g></svg>