<?xml version="1.0" ?><svg id="Layer_1" style="enable-background:new 0 0 64 64;" version="1.1" viewBox="0 0 64 64" xml:space="preserve" xmlns="http://www.w3.org/2000/svg" xmlns:xlink="http://www.w3.org/1999/xlink"><style type="text/css">
	.st0{fill:#313131;}
	.st1{fill-rule:evenodd;clip-rule:evenodd;fill:#57CEF3;}
	.st2{fill-rule:evenodd;clip-rule:evenodd;fill:#00AFF0;}
	.st3{fill:#314A52;}
</style><g id="OnlyFans"><path class="st0" d="M19.1,2.7c-4.2,1.8-7.9,4.5-10.9,7.9c-3,3.4-5.3,7.4-6.7,11.7c-1.4,4.3-1.8,8.9-1.2,13.5   c0.5,4.5,2.1,8.9,4.4,12.8s5.5,7.2,9.3,9.8c3.8,2.6,8,4.3,12.5,5.1C31,64.3,35.6,64.1,40,63c4.4-1.1,8.5-3.2,12.1-6.1l-2.5-3.1   c-3.1,2.5-6.7,4.3-10.6,5.3c-3.9,1-7.9,1.2-11.8,0.5c-3.9-0.7-7.7-2.2-11-4.5c-3.3-2.2-6.1-5.2-8.1-8.6C6,43.1,4.7,39.3,4.2,35.4   c-0.5-4-0.1-8,1.1-11.8c1.2-3.8,3.2-7.3,5.8-10.3c2.7-3,5.9-5.3,9.6-6.9L19.1,2.7z"/><path class="st1" d="M34,41.5c1.2-0.7,2-2,2-3.5c0-2.2-1.8-4-4-4c-2.2,0-4,1.8-4,4c0,1.5,0.8,2.8,2,3.5V44c0,1.1,0.9,2,2,2   c1.1,0,2-0.9,2-2V41.5z M45,31H19v13l13,6l13-6V31z"/><path class="st2" d="M20,33c0-0.6,0.4-1,1-1h22c0.6,0,1,0.4,1,1v3c0,5.9-4.3,7.7-10,8v0c0,1.1-0.9,2-2,2c-1.1,0-2-0.9-2-2v0   c-5.7-0.3-10-2-10-8V33z M21,28c-2.8,0-5,2.2-5,5v3c0,8.8,7.2,16,16,16c8.8,0,16-7.2,16-16v-3c0-2.8-2.2-5-5-5H21z"/><path class="st3" d="M59.7,16c4.2,7.3,5.4,16.1,3.2,24.3S55.3,55.5,48,59.7l-2-3.5c6.4-3.7,11.1-9.8,13-17S60,24.4,56.2,18   c-3.7-6.4-9.8-11.1-17-13C32.1,3,24.4,4,18,7.8l-2-3.5C23.3,0,32.1-1.1,40.3,1.1C48.5,3.3,55.5,8.7,59.7,16z M40,24v8h3   c0.6,0,1,0.4,1,1v3c0,4.1-2,7.7-5.1,9.9l2.3,3.3C45.3,46.2,48,41.4,48,36v-3c0-2.4-1.7-4.4-4-4.9V24c0-6.6-5.4-12-12-12   c-6.6,0-12,5.4-12,12v4.1c0.3-0.1,0.7-0.1,1-0.1h3v-4c0-4.4,3.6-8,8-8C36.4,16,40,19.6,40,24z"/></g></svg>