<?xml version="1.0" ?><svg id="Reddit" style="enable-background:new 0 0 64 64;" version="1.1" viewBox="0 0 64 64" xml:space="preserve" xmlns="http://www.w3.org/2000/svg" xmlns:xlink="http://www.w3.org/1999/xlink"><g><g id="XMLID_23_"><g><circle cx="43" cy="33" r="5" style="fill:#F25B22;"/><circle cx="22" cy="33" r="5" style="fill:#F25B22;"/><circle cx="46" cy="5" r="4" style="fill:#AFB6BB;"/><path d="M60,23c0,1.84-0.62,3.53-1.66,4.88c-3.17-3.8-7.8-6.86-13.31-8.75L45.07,19     c1.38-2.39,3.97-4,6.93-4C56.42,15,60,18.58,60,23z" style="fill:#AFB6BB;"/><path d="M12,15c3.01,0,5.63,1.67,7,4.12c-5.52,1.89-10.16,4.95-13.34,8.75C4.61,26.53,4,24.84,4,23     C4,18.58,7.58,15,12,15z" style="fill:#AFB6BB;"/><path d="M58.34,27.88C61.3,31.4,63,35.55,63,40c0,12.7-13.88,23-31,23S1,52.7,1,40     c0-4.45,1.71-8.61,4.66-12.13c3.18-3.8,7.82-6.86,13.34-8.75C22.95,17.76,27.36,17,32,17c4.65,0,9.07,0.76,13.03,2.13     C50.54,21.02,55.17,24.08,58.34,27.88z M48,33c0-2.76-2.24-5-5-5s-5,2.24-5,5s2.24,5,5,5S48,35.76,48,33z M27,33     c0-2.76-2.24-5-5-5s-5,2.24-5,5s2.24,5,5,5S27,35.76,27,33z" style="fill:#E7ECED;"/></g><g><path d="M58.34,27.88     C61.3,31.4,63,35.55,63,40c0,12.7-13.88,23-31,23S1,52.7,1,40c0-4.45,1.71-8.61,4.66-12.13c3.18-3.8,7.82-6.86,13.34-8.75     C22.95,17.76,27.36,17,32,17c4.65,0,9.07,0.76,13.03,2.13C50.54,21.02,55.17,24.08,58.34,27.88z" style="fill:none;stroke:#000000;stroke-width:2;stroke-linejoin:round;stroke-miterlimit:10;"/><circle cx="22" cy="33" r="5" style="fill:none;stroke:#000000;stroke-width:2;stroke-linejoin:round;stroke-miterlimit:10;"/><circle cx="43" cy="33" r="5" style="fill:none;stroke:#000000;stroke-width:2;stroke-linejoin:round;stroke-miterlimit:10;"/><path d="M48.16,43     c-3.35,5.4-9.34,9-16.16,9s-12.81-3.6-16.16-9" style="fill:none;stroke:#000000;stroke-width:2;stroke-linejoin:round;stroke-miterlimit:10;"/><path d="M6,28.29     c-0.12-0.13-0.23-0.27-0.34-0.42C4.61,26.53,4,24.84,4,23c0-4.42,3.58-8,8-8c3.01,0,5.63,1.67,7,4.12v0.01" style="fill:none;stroke:#000000;stroke-width:2;stroke-linejoin:round;stroke-miterlimit:10;"/><path d="M45.07,19     c1.38-2.39,3.97-4,6.93-4c4.42,0,8,3.58,8,8c0,1.84-0.62,3.53-1.66,4.88c-0.03,0.04-0.06,0.08-0.09,0.12" style="fill:none;stroke:#000000;stroke-width:2;stroke-linejoin:round;stroke-miterlimit:10;"/><path d="M32,17c0,0-1-12,10-12" style="fill:none;stroke:#000000;stroke-width:2;stroke-linejoin:round;stroke-miterlimit:10;"/><circle cx="46" cy="5" r="4" style="fill:none;stroke:#000000;stroke-width:2;stroke-linejoin:round;stroke-miterlimit:10;"/></g></g></g></svg>